<?xml version="1.0" encoding="utf-8"?><svg width="320" height="288" viewBox="0 0 320 288" xmlns="http://www.w3.org/2000/svg" xmlns:xlink="http://www.w3.org/1999/xlink"><svg viewBox="0 0 32 32" width="32" height="32" id="alarm" xmlns="http://www.w3.org/2000/svg"><path fill="none" d="M0 0h32v32H0z"/><path d="M3.293 11.707a1 1 0 010-1.414l4-4a1 1 0 011.414 1.414l-4 4a1 1 0 01-1.414 0zm25.414-1.414l-4-4a1 1 0 00-1.414 1.414l4 4a1 1 0 001.414-1.414zM28 19A12 12 0 1112.848 7.434 3.964 3.964 0 0112 5a4 4 0 018 0 3.957 3.957 0 01-.848 2.434A12.011 12.011 0 0128 19zM16 7a2 2 0 10-2-2 2 2 0 002 2zm1 6a1 1 0 00-2 0v5h-3a1 1 0 000 2h4a1 1 0 001-1z" fill="#364f6b"/></svg><svg viewBox="0 0 32 32" width="32" height="32" id="alert" x="32" xmlns="http://www.w3.org/2000/svg"><path fill="none" d="M0 0h32v32H0z"/><path d="M30.893 29.551l-14-28.042a1.039 1.039 0 00-1.788 0l-14 28.042A1 1 0 002 31h28a1 1 0 00.893-1.449zM16 26.994a1 1 0 111-1 1 1 0 01-1 1zm1-5.007a1 1 0 11-2 0V11.972a1 1 0 112 0z" fill="#364f6b"/></svg><svg viewBox="0 0 32 32" width="32" height="32" id="app_notification" y="32" xmlns="http://www.w3.org/2000/svg"><g data-name="app notification"><path fill="none" d="M0 0h32v32H0z"/><path d="M22 4a2 2 0 112 2 2 2 0 01-2-2zm4 17H6a3 3 0 000 6h7.184A2.966 2.966 0 0013 28a3 3 0 006 0 2.966 2.966 0 00-.184-1H26a3 3 0 000-6zm0-6a10.013 10.013 0 00-9-9.949V2a1 1 0 00-2 0v3.051A10.013 10.013 0 006 15v4h20z" fill="#364f6b"/></g></svg><svg viewBox="0 0 32 32" width="32" height="32" id="block" x="32" y="32" xmlns="http://www.w3.org/2000/svg"><path fill="none" d="M0 0h32v32H0z"/><path d="M31 16a15 15 0 10-15 15 15.017 15.017 0 0015-15zm-2 0a12.927 12.927 0 01-3.139 8.447L7.553 6.139A12.982 12.982 0 0129 16zM3 16a12.927 12.927 0 013.139-8.447l18.308 18.308A12.982 12.982 0 013 16z" fill="#364f6b"/></svg><svg viewBox="0 0 32 32" width="32" height="32" id="bookmark" x="64" xmlns="http://www.w3.org/2000/svg"><path fill="none" d="M0 0h32v32H0z"/><path d="M26 2v28a1 1 0 01-1.406.914L16 27.093l-8.594 3.82A1 1 0 016 30V2a1 1 0 011-1h18a1 1 0 011 1z" fill="#364f6b"/></svg><svg viewBox="0 0 32 32" width="32" height="32" id="bug" x="64" y="32" xmlns="http://www.w3.org/2000/svg"><path fill="none" d="M0 0h32v32H0z"/><path d="M30 18a1 1 0 01-1 1h-4v3c0 .126-.014.248-.019.372l3.466 1.733a1 1 0 11-.894 1.79l-2.9-1.45a8.99 8.99 0 01-17.308 0l-2.9 1.45a1 1 0 01-.894-1.79l3.466-1.733C7.014 22.248 7 22.126 7 22v-3H3a1 1 0 010-2h4v-3c0-.126.014-.248.019-.372L3.553 11.9a1 1 0 11.894-1.79l2.9 1.45a9.027 9.027 0 016.209-6.209l-1.45-2.9a1 1 0 111.79-.894l1.733 3.466c.124 0 .246-.019.372-.019s.248.014.372.019l1.733-3.466a1 1 0 011.79.894l-1.45 2.9a9.027 9.027 0 016.209 6.209l2.9-1.45a1 1 0 01.894 1.79l-3.466 1.733c0 .124.019.246.019.372v3h4A1 1 0 0130 18z" fill="#364f6b"/></svg><svg viewBox="0 0 32 32" width="32" height="32" id="check" y="64" xmlns="http://www.w3.org/2000/svg"><path fill="none" d="M0 0h32v32H0z"/><path d="M16 1a15 15 0 1015 15A15.017 15.017 0 0016 1zm5.752 11.658l-7 8A1 1 0 0113.2 20.6l-3-4a1 1 0 011.6-1.2l2.26 3.013 6.188-7.071a1 1 0 111.5 1.316z" fill="#364f6b"/></svg><svg viewBox="0 0 32 32" width="32" height="32" id="check_double" x="32" y="64" xmlns="http://www.w3.org/2000/svg"><g data-name="check double"><path fill="none" d="M0 0h32v32H0z"/><path d="M16 1a15 15 0 1015 15A15.017 15.017 0 0016 1zm5.752 14.658l-7 8A1 1 0 0113.2 23.6l-3-4a1 1 0 111.6-1.2l2.26 3.013 6.188-7.071a1 1 0 111.5 1.316zm0-6l-7 8A1 1 0 0113.2 17.6l-3-4a1 1 0 011.6-1.2l2.26 3.013 6.188-7.071a1 1 0 111.5 1.316z" fill="#364f6b"/></g></svg><svg viewBox="0 0 32 32" width="32" height="32" id="cloud" x="64" y="64" xmlns="http://www.w3.org/2000/svg"><path fill="none" d="M0 0h32v32H0z"/><path d="M31 18a7.008 7.008 0 01-7 7H5a4 4 0 01-4-4 3.957 3.957 0 012.027-3.467A5.375 5.375 0 013 17a6.006 6.006 0 016-6 5.224 5.224 0 01.654.042 7 7 0 0112.75.144A6.9 6.9 0 0124 11a7.008 7.008 0 017 7z" fill="#364f6b"/></svg><svg viewBox="0 0 32 32" width="32" height="32" id="cloud_disable" x="96" xmlns="http://www.w3.org/2000/svg"><g data-name="cloud disable"><path fill="none" d="M0 0h32v32H0z"/><path d="M7.079 11.321L20.758 25H5a4 4 0 01-4-4 3.957 3.957 0 012.027-3.467A5.375 5.375 0 013 17a6.007 6.007 0 014.079-5.679zM31 18a7.008 7.008 0 00-7-7 6.9 6.9 0 00-1.6.186 6.991 6.991 0 00-11.632-1.832L6.707 5.293a1 1 0 00-1.414 1.414l20 20a1 1 0 001.414-1.414l-.622-.622A7 7 0 0031 18z" fill="#364f6b"/></g></svg><svg viewBox="0 0 32 32" width="32" height="32" id="cloud_download" x="96" y="32" xmlns="http://www.w3.org/2000/svg"><g data-name="cloud download"><path fill="none" d="M0 0h32v32H0z"/><path d="M19.707 24.708l-3 3a1 1 0 01-1.416 0l-3-3a1 1 0 111.414-1.414L15 24.586V15a1 1 0 112 0v9.585l1.293-1.292a1 1 0 111.414 1.414zM24 8a6.9 6.9 0 00-1.6.186 7 7 0 00-12.75-.144A5.041 5.041 0 009 8a6.006 6.006 0 00-6 6c0 .174.009.351.027.532A3.957 3.957 0 001 18a4 4 0 004 4h8v-7a3 3 0 116 0v7h5a7 7 0 000-14z" fill="#364f6b"/></g></svg><svg viewBox="0 0 32 32" width="32" height="32" id="cloud_upload" x="96" y="64" xmlns="http://www.w3.org/2000/svg"><g data-name="cloud upload"><path fill="none" d="M0 0h32v32H0z"/><path d="M19.707 18.707a1 1 0 01-1.414 0L17 17.414V27a1 1 0 01-2 0v-9.586l-1.293 1.293a1 1 0 01-1.414-1.414l3-3a1 1 0 011.414 0l3 3a1 1 0 010 1.414zM24 8a6.9 6.9 0 00-1.6.186 7 7 0 00-12.75-.144A5.224 5.224 0 009 8a6.006 6.006 0 00-6 6c0 .175.009.352.027.533A3.957 3.957 0 001 18a4 4 0 004 4h8v-1a3 3 0 01-2.121-5.121l3-3a3.005 3.005 0 014.244 0l3 3A3 3 0 0119 21v1h5a7 7 0 000-14z" fill="#364f6b"/></g></svg><svg viewBox="0 0 32 32" width="32" height="32" id="cogwheel" y="96" xmlns="http://www.w3.org/2000/svg"><g data-name="cogwheel alt"><path fill="none" d="M0 0h32v32H0z"/><path d="M29.554 20.168l-2.8-1.869a10.738 10.738 0 000-4.6l2.8-1.869a1 1 0 00.34-1.279l-2-4a1 1 0 00-1.449-.385L23.6 8.063A10.869 10.869 0 0019 5.415V2a1 1 0 00-1-1h-4a1 1 0 00-1 1v3.415a10.869 10.869 0 00-4.6 2.648l-2.843-1.9a1 1 0 00-1.449.385l-2 4a1 1 0 00.34 1.279l2.8 1.869a10.738 10.738 0 000 4.6l-2.8 1.869a1 1 0 00-.34 1.279l2 4a1 1 0 001.449.385L8.4 23.937a10.869 10.869 0 004.6 2.648V30a1 1 0 001 1h4a1 1 0 001-1v-3.415a10.869 10.869 0 004.6-2.648l2.843 1.895a1 1 0 001.449-.385l2-4a1 1 0 00-.338-1.279zM16 21a5 5 0 115-5 5 5 0 01-5 5z" fill="#364f6b"/></g></svg><svg viewBox="0 0 32 32" width="32" height="32" id="copy" x="32" y="96" xmlns="http://www.w3.org/2000/svg"><path fill="none" d="M0 0h32v32H0z"/><path d="M28 7v22a2 2 0 01-2 2H10a2 2 0 01-2-2V7a2 2 0 012-2h16a2 2 0 012 2zM6 26V4a1 1 0 011-1h16a1 1 0 000-2H7a3 3 0 00-3 3v22a1 1 0 002 0z" fill="#364f6b"/></svg><svg viewBox="0 0 32 32" width="32" height="32" id="cross" x="64" y="96" xmlns="http://www.w3.org/2000/svg"><path fill="none" d="M0 0h32v32H0z"/><path d="M30.707 8.293l-7-7A1 1 0 0023 1H9a1 1 0 00-.707.293l-7 7A1 1 0 001 9v14a1 1 0 00.293.707l7 7A1 1 0 009 31h14a1 1 0 00.707-.293l7-7A1 1 0 0031 23V9a1 1 0 00-.293-.707zm-8 13a1 1 0 01-1.414 1.414L16 17.414l-5.293 5.293a1 1 0 01-1.414-1.414L14.586 16l-5.293-5.293a1 1 0 011.414-1.414L16 14.586l5.293-5.293a1 1 0 011.414 1.414L17.414 16z" fill="#364f6b"/></svg><svg viewBox="0 0 32 32" width="32" height="32" id="cut" x="96" y="96" xmlns="http://www.w3.org/2000/svg"><path fill="none" d="M0 0h32v32H0z"/><path d="M23 19a5.966 5.966 0 00-2.711.652l-1.866-2.728-1.212 1.776 1.469 2.147A6 6 0 1023 19zm0 10a4 4 0 114-4 4 4 0 01-4 4zm2.825-26.436a1 1 0 00-1.65-1.129L11.711 19.652a6.006 6.006 0 101.609 1.19zM9 29a4 4 0 114-4 4 4 0 01-4 4zM6.175 2.564a1 1 0 011.65-1.129l6.964 10.178-1.212 1.77z" fill="#364f6b"/></svg><svg viewBox="0 0 32 32" width="32" height="32" id="dashboard" x="128" xmlns="http://www.w3.org/2000/svg"><path fill="none" d="M0 0h32v32H0z"/><path d="M31 27a2 2 0 01-2 2H3a2 2 0 01-2-2V9h30zM29 3H3a2 2 0 00-2 2v2h30V5a2 2 0 00-2-2z" fill="#364f6b"/></svg><svg viewBox="0 0 32 32" width="32" height="32" id="down" x="128" y="32" xmlns="http://www.w3.org/2000/svg"><path fill="none" d="M0 0h32v32H0z"/><path d="M8 20.008h4V9h8v11.008h4a1 1 0 01.748 1.665l-8 9.006a1.03 1.03 0 01-1.494 0l-8-9.007A1 1 0 018 20.008zM12 7h8V2a1 1 0 00-1-1h-6a1 1 0 00-1 1v5z" fill="#364f6b"/></svg><svg viewBox="0 0 32 32" width="32" height="32" id="download" x="128" y="64" xmlns="http://www.w3.org/2000/svg"><path fill="none" d="M0 0h32v32H0z"/><path d="M16 1a15 15 0 1015 15A15.017 15.017 0 0016 1zm3.707 18.707l-3 3a1 1 0 01-1.414 0l-3-3a1 1 0 011.414-1.414L15 19.586V10a1 1 0 012 0v9.586l1.293-1.293a1 1 0 011.414 1.414z" fill="#364f6b"/></svg><svg viewBox="0 0 32 32" width="32" height="32" id="download_queue" x="128" y="96" xmlns="http://www.w3.org/2000/svg"><g data-name="download queue"><path fill="none" d="M0 0h32v32H0z"/><path d="M8.707 23.294a1 1 0 010 1.414l-3 3a1 1 0 01-1.416 0l-3-3a1 1 0 111.414-1.414L4 24.587V19a1 1 0 012 0v5.587l1.293-1.293a1 1 0 011.414 0zM30 22H13a1 1 0 000 2h17a1 1 0 000-2zM7.293 9.294L6 10.587V5a1 1 0 00-2 0v5.587L2.707 9.294a1 1 0 00-1.414 1.414l3 3a1 1 0 001.416 0l3-3a1 1 0 00-1.416-1.414zM13 10h17a1 1 0 000-2H13a1 1 0 000 2z" fill="#364f6b"/></g></svg><svg viewBox="0 0 32 32" width="32" height="32" id="draft" y="128" xmlns="http://www.w3.org/2000/svg"><path fill="none" d="M0 0h32v32H0z"/><path d="M30.707 12.707l-12 12A1 1 0 0118 25h-4a1 1 0 01-1-1v-4a1 1 0 01.293-.707l12-12a1 1 0 011.414 0l4 4a1 1 0 010 1.414zM11 24v-1H2a1 1 0 000 2h9.184A2.966 2.966 0 0111 24z" fill="#364f6b"/></svg><svg viewBox="0 0 32 32" width="32" height="32" id="exit_fullscreen" x="32" y="128" xmlns="http://www.w3.org/2000/svg"><g data-name="exit fullscreen"><path fill="none" d="M0 0h32v32H0z"/><path d="M7 26v5H2a1 1 0 01-1-1v-5h5a1 1 0 011 1zM31 3v26a2 2 0 01-2 2H9v-5a3 3 0 00-3-3H1V3a2 2 0 012-2h26a2 2 0 012 2zM10 21a1 1 0 001 1h5a1 1 0 000-2h-2.586L23.707 9.707a1 1 0 10-1.414-1.414L12 18.586V16a1 1 0 00-2 0z" fill="#364f6b"/></g></svg><svg viewBox="0 0 32 32" width="32" height="32" id="eye_close" x="64" y="128" xmlns="http://www.w3.org/2000/svg"><g data-name="eye close"><path fill="none" d="M0 0h32v32H0z"/><path d="M30.912 13.41C30.754 13.761 26.919 22 16 22S1.246 13.761 1.088 13.41a1 1 0 010-.82C1.246 12.239 5.081 4 16 4s14.754 8.239 14.912 8.59a1 1 0 010 .82zm-5.046 8.042a17.339 17.339 0 01-1.872.956l2.3 2.3a1 1 0 001.414-1.414zM16 24c-.347 0-.665-.033-1-.048V27a1 1 0 002 0v-3.048c-.335.015-.653.048-1 .048zm-9.866-2.548l-1.841 1.841a1 1 0 001.414 1.414l2.3-2.3a17.522 17.522 0 01-1.873-.955z" fill="#364f6b"/></g></svg><svg viewBox="0 0 32 32" width="32" height="32" id="eye_open" x="96" y="128" xmlns="http://www.w3.org/2000/svg"><g data-name="eye open"><path fill="none" d="M0 0h32v32H0z"/><path d="M30.912 18.59a15.446 15.446 0 00-6.5-6.585l3.3-3.3a1 1 0 10-1.414-1.414l-3.842 3.839A17.9 17.9 0 0017 10.047V5a1 1 0 00-2 0v5.047a17.9 17.9 0 00-5.456 1.083L5.707 7.293a1 1 0 10-1.414 1.414l3.3 3.3a15.446 15.446 0 00-6.5 6.585 1 1 0 000 .82C1.246 19.761 5.081 28 16 28s14.754-8.239 14.912-8.59a1 1 0 000-.82zM16 25a6 6 0 116-6 6.006 6.006 0 01-6 6z" fill="#364f6b"/></g></svg><svg viewBox="0 0 32 32" width="32" height="32" id="female_user" x="128" y="128" xmlns="http://www.w3.org/2000/svg"><g data-name="female user alt"><path fill="none" d="M0 0h32v32H0z"/><path d="M30 31H2a1 1 0 01-.955-1.3 15.419 15.419 0 0110.506-10.056 7.977 7.977 0 008.9 0A15.419 15.419 0 0130.954 29.7 1 1 0 0130 31zM16 1A12.013 12.013 0 004 13v7a.986.986 0 00.77.954A18.062 18.062 0 019.844 18.1a7.949 7.949 0 01-1.06-8.533A1 1 0 019.686 9h12.628a1 1 0 01.9.569 7.949 7.949 0 01-1.06 8.533 18.062 18.062 0 015.073 2.852A.987.987 0 0028 20v-7A12.013 12.013 0 0016 1z" fill="#364f6b"/></g></svg><svg viewBox="0 0 32 32" width="32" height="32" id="file" x="160" xmlns="http://www.w3.org/2000/svg"><path fill="none" d="M0 0h32v32H0z"/><path d="M31 6v20a1 1 0 01-.629.928l-10 4A1 1 0 0119 30V2a1 1 0 011.371-.929l10 4A1 1 0 0131 6zM17 5v22H3a2 2 0 01-2-2V7a2 2 0 012-2zm-3 16a1 1 0 00-1-1H5a1 1 0 000 2h8a1 1 0 001-1zm0-5a1 1 0 00-1-1H5a1 1 0 000 2h8a1 1 0 001-1zm0-5a1 1 0 00-1-1H5a1 1 0 000 2h8a1 1 0 001-1z" fill="#364f6b"/></svg><svg viewBox="0 0 32 32" width="32" height="32" id="filter" x="160" y="32" xmlns="http://www.w3.org/2000/svg"><path fill="none" d="M0 0h32v32H0z"/><path d="M1 5a1 1 0 011-1h9.142a3.981 3.981 0 017.716 0H30a1 1 0 010 2H18.858a3.981 3.981 0 01-7.716 0H2a1 1 0 01-1-1zm29 9H14.858a3.981 3.981 0 00-7.716 0H2a1 1 0 000 2h5.142a3.981 3.981 0 007.716 0H30a1 1 0 000-2zm0 10h-9.142a3.981 3.981 0 00-7.716 0H2a1 1 0 000 2h11.142a3.981 3.981 0 007.716 0H30a1 1 0 000-2z" fill="#364f6b"/></svg><svg viewBox="0 0 32 32" width="32" height="32" id="flag" x="160" y="64" xmlns="http://www.w3.org/2000/svg"><path fill="none" d="M0 0h32v32H0z"/><path d="M6 31a1 1 0 01-1-1V2a1 1 0 012 0v28a1 1 0 01-1 1zM23.2 8l3.631-5.445A1 1 0 0026 1H9v14h17a1 1 0 00.832-1.555z" fill="#364f6b"/></svg><svg viewBox="0 0 32 32" width="32" height="32" id="fullscreen" x="160" y="96" xmlns="http://www.w3.org/2000/svg"><path fill="none" d="M0 0h32v32H0z"/><path d="M7 26v5H2a1 1 0 01-1-1v-5h5a1 1 0 011 1zM31 3v26a2 2 0 01-2 2H9v-5a3 3 0 00-3-3H1V3a2 2 0 012-2h26a2 2 0 012 2zm-7 6a1 1 0 00-1-1h-5a1 1 0 000 2h2.586L10.293 20.293a1 1 0 101.414 1.414L22 11.414V14a1 1 0 002 0z" fill="#364f6b"/></svg><svg viewBox="0 0 32 32" width="32" height="32" id="heart" x="160" y="128" xmlns="http://www.w3.org/2000/svg"><path fill="none" d="M0 0h32v32H0z"/><path d="M31 13c-.026 5.728-3.91 12.929-14.73 15.958a1 1 0 01-.54 0C4.91 25.933 1.026 18.733 1 13S4.656 3 9 3a9.815 9.815 0 017 3.462A9.818 9.818 0 0123 3c4.333 0 8.026 4.254 8 10z" fill="#364f6b"/></svg><svg viewBox="0 0 32 32" width="32" height="32" id="help" y="160" xmlns="http://www.w3.org/2000/svg"><path fill="none" d="M0 0h32v32H0z"/><path d="M30.707 8.293l-7-7A1 1 0 0023 1H9a1 1 0 00-.707.293l-7 7A1 1 0 001 9v14a1 1 0 00.293.707l7 7A1 1 0 009 31h14a1 1 0 00.707-.293l7-7A1 1 0 0031 23V9a1 1 0 00-.293-.707zM16 27a1 1 0 111-1 1 1 0 01-1 1zm1-10.083V22a1 1 0 01-2 0v-6a1 1 0 011-1 4 4 0 10-4-4 1 1 0 01-2 0 6 6 0 117 5.917z" fill="#364f6b"/></svg><svg viewBox="0 0 32 32" width="32" height="32" id="home" x="32" y="160" xmlns="http://www.w3.org/2000/svg"><g data-name="home alt"><path fill="none" d="M0 0h32v32H0z"/><path d="M31 11v19a1 1 0 01-1 1H19v-9h-6v9H2a1 1 0 01-1-1V11a1 1 0 01.459-.841l14-9a1 1 0 011.082 0l14 9A1 1 0 0131 11z" fill="#364f6b"/></g></svg><svg viewBox="0 0 32 32" width="32" height="32" id="information" x="64" y="160" xmlns="http://www.w3.org/2000/svg"><path fill="none" d="M0 0h32v32H0z"/><path d="M30.893 29.551l-14-28.042a1.039 1.039 0 00-1.788 0l-14 28.042A1 1 0 002 31h28a1 1 0 00.893-1.449zM17 25.993a1 1 0 11-2 0V15.978a1 1 0 112 0zm-1-13.02a1 1 0 111-1 1 1 0 01-1 1z" fill="#364f6b"/></svg><svg viewBox="0 0 32 32" width="32" height="32" id="left" x="96" y="160" xmlns="http://www.w3.org/2000/svg"><path fill="none" d="M0 0h32v32H0z"/><path d="M11.992 8v4H23v8H11.992v4a1 1 0 01-1.665.748l-9.006-8a1.03 1.03 0 010-1.494l9.007-8A1 1 0 0111.992 8zM25 12v8h5a1 1 0 001-1v-6a1 1 0 00-1-1z" fill="#364f6b"/></svg><svg viewBox="0 0 32 32" width="32" height="32" id="lifebuoy" x="128" y="160" xmlns="http://www.w3.org/2000/svg"><path fill="none" d="M0 0h32v32H0z"/><path d="M17 1a15.05 15.05 0 0114 14h-7.042A8.022 8.022 0 0017 8.042zm6.955 16A8.022 8.022 0 0117 23.958V31a15.05 15.05 0 0014-14zM8.042 15A8.022 8.022 0 0115 8.042V1A15.05 15.05 0 001 15zM15 23.958A8.022 8.022 0 018.042 17H1a15.05 15.05 0 0014 14z" fill="#364f6b"/></svg><svg viewBox="0 0 32 32" width="32" height="32" id="list" x="160" y="160" xmlns="http://www.w3.org/2000/svg"><path fill="none" d="M0 0h32v32H0z"/><path d="M8 28a3 3 0 11-3-3 3 3 0 013 3zM5 13a3 3 0 103 3 3 3 0 00-3-3zM5 1a3 3 0 103 3 3 3 0 00-3-3zm25 27a1 1 0 00-1-1H13a1 1 0 000 2h16a1 1 0 001-1zm0-12a1 1 0 00-1-1H13a1 1 0 000 2h16a1 1 0 001-1zm0-12a1 1 0 00-1-1H13a1 1 0 000 2h16a1 1 0 001-1z" fill="#364f6b"/></svg><svg viewBox="0 0 32 32" width="32" height="32" id="loading" x="192" xmlns="http://www.w3.org/2000/svg"><path fill="none" d="M0 0h32v32H0z"/><path d="M16 1a15 15 0 1015 15A14.992 14.992 0 0016 1zm4.293 9.293l2-2a1 1 0 011.414 1.414l-2 2a1 1 0 01-1.414-1.414zm-8.586 11.414l-2 2a1 1 0 01-1.414-1.414l2-2a1 1 0 011.414 1.414zM17 26a1 1 0 01-2 0v-2a1 1 0 012 0zm0-18a1 1 0 01-2 0V6a1 1 0 012 0zm6.707 15.707a1 1 0 01-1.414 0l-2-2a1 1 0 011.414-1.414l2 2a1 1 0 010 1.414zM26 17h-2a1 1 0 010-2h2a1 1 0 010 2z" fill="#364f6b"/></svg><svg viewBox="0 0 32 32" width="32" height="32" id="lock" x="192" y="32" xmlns="http://www.w3.org/2000/svg"><path fill="none" d="M0 0h32v32H0z"/><path d="M25 13V9.888A8.9 8.9 0 0016.112 1h-.224A8.9 8.9 0 007 9.888V13a3 3 0 00-3 3v12a3 3 0 003 3h18a3 3 0 003-3V16a3 3 0 00-3-3zM9 9.888A6.9 6.9 0 0115.888 3h.224A6.9 6.9 0 0123 9.888V13H9zm8 13.6V26a1 1 0 01-2 0v-2.517a3 3 0 112 0z" fill="#364f6b"/></svg><svg viewBox="0 0 32 32" width="32" height="32" id="login" x="192" y="64" xmlns="http://www.w3.org/2000/svg"><path fill="none" d="M0 0h32v32H0z"/><path d="M30.316 5.052l-12-4A1 1 0 0017 2v3H9a2 2 0 00-2 2v3a1 1 0 002 0V7h8v18H9v-3a1 1 0 00-2 0v3a2 2 0 002 2h8v3a1 1 0 001.316.948l12-4A1 1 0 0031 26V6a1 1 0 00-.684-.948zM24 17h-2a1 1 0 010-2h2a1 1 0 010 2zm-12.414 0H2a1 1 0 010-2h9.586l-1.293-1.293a1 1 0 011.414-1.414l3 3a1.006 1.006 0 010 1.415l-3 3a1 1 0 01-1.414-1.414z" fill="#364f6b"/></svg><svg viewBox="0 0 32 32" width="32" height="32" id="logout" x="192" y="96" xmlns="http://www.w3.org/2000/svg"><path fill="none" d="M0 0h32v32H0z"/><path d="M30.316 5.052l-12-4A1 1 0 0017 2v3H9a2 2 0 00-2 2v3a1 1 0 002 0V7h8v18H9v-3a1 1 0 00-2 0v3a2 2 0 002 2h8v3a1 1 0 001.316.948l12-4A1 1 0 0031 26V6a1 1 0 00-.684-.948zM24 17h-2a1 1 0 010-2h2a1 1 0 010 2zM5.7 18.293a1 1 0 11-1.414 1.414l-3-3a1.006 1.006 0 010-1.415l3-3A1 1 0 015.7 13.706L4.412 15H14a1 1 0 010 2H4.412z" fill="#364f6b"/></svg><svg viewBox="0 0 32 32" width="32" height="32" id="menu_burger" x="192" y="128" xmlns="http://www.w3.org/2000/svg"><g data-name="menu burger"><path fill="none" d="M0 0h32v32H0z"/><path d="M27 9H5a1 1 0 010-2h22a1 1 0 010 2zm4 7a1 1 0 00-1-1H2a1 1 0 000 2h28a1 1 0 001-1zm-3 8a1 1 0 00-1-1H5a1 1 0 000 2h22a1 1 0 001-1z" fill="#364f6b"/></g></svg><svg viewBox="0 0 32 32" width="32" height="32" id="menu_dots" x="192" y="160" xmlns="http://www.w3.org/2000/svg"><g data-name="menu dots"><path fill="none" d="M0 0h32v32H0z"/><path d="M15 8a7 7 0 11-7-7 7.008 7.008 0 017 7zm9 7a7 7 0 10-7-7 7.008 7.008 0 007 7zM8 17a7 7 0 107 7 7.008 7.008 0 00-7-7zm16 0a7 7 0 107 7 7.008 7.008 0 00-7-7z" fill="#364f6b"/></g></svg><svg viewBox="0 0 32 32" width="32" height="32" id="microphone" y="192" xmlns="http://www.w3.org/2000/svg"><path fill="none" d="M0 0h32v32H0z"/><path d="M22 30a1 1 0 01-1 1H11a1 1 0 01-1-1 1 1 0 011-1h10a1 1 0 011 1zm4-12v-5a1 1 0 00-2 0v5a8 8 0 01-16 0v-5a1 1 0 00-2 0v5a10 10 0 0020 0zm-4 0V7a6 6 0 00-6-6 6 6 0 00-6 6v11a6 6 0 006 6 6 6 0 006-6z" fill="#364f6b"/></svg><svg viewBox="0 0 32 32" width="32" height="32" id="microphone_disable" x="32" y="192" xmlns="http://www.w3.org/2000/svg"><g data-name="microphone disable"><path fill="none" d="M0 0h32v32H0z"/><path d="M26.707 26.707a1 1 0 01-1.414 0l-20-20a1 1 0 011.414-1.414L10 8.586V7a6 6 0 0112 0v11a5.945 5.945 0 01-.412 2.174l1.5 1.5A7.894 7.894 0 0024 18v-5a1 1 0 012 0v5a9.891 9.891 0 01-1.444 5.141l2.151 2.152a1 1 0 010 1.414zM21 29H11a1 1 0 000 2h10a1 1 0 000-2zm.851-2.907l-1.431-1.431A7.993 7.993 0 018 18v-5a1 1 0 00-2 0v5a9.983 9.983 0 0015.851 8.093zM16 24a5.966 5.966 0 002.968-.79L10 14.242V18a6 6 0 006 6z" fill="#364f6b"/></g></svg><svg viewBox="0 0 32 32" width="32" height="32" id="minus" x="64" y="192" xmlns="http://www.w3.org/2000/svg"><path fill="none" d="M0 0h32v32H0z"/><path d="M16 1a15 15 0 1015 15A15.017 15.017 0 0016 1zm5 16H11a1 1 0 010-2h10a1 1 0 010 2z" fill="#364f6b"/></svg><svg viewBox="0 0 32 32" width="32" height="32" id="note" x="96" y="192" xmlns="http://www.w3.org/2000/svg"><path fill="none" d="M0 0h32v32H0z"/><path d="M28 1H8a3 3 0 00-3 3v3h1a1 1 0 010 2H5v6h1a1 1 0 010 2H5v6h1a1 1 0 010 2H5v3a3 3 0 003 3h20a3 3 0 003-3V4a3 3 0 00-3-3zm-3 24H13a1 1 0 010-2h12a1 1 0 010 2zm0-8H13a1 1 0 010-2h12a1 1 0 010 2zm0-8H13a1 1 0 010-2h12a1 1 0 010 2zM5 7v2H2a1 1 0 010-2zm0 8v2H2a1 1 0 010-2zm0 8v2H2a1 1 0 010-2z" fill="#364f6b"/></svg><svg viewBox="0 0 32 32" width="32" height="32" id="notification" x="128" y="192" xmlns="http://www.w3.org/2000/svg"><path fill="none" d="M0 0h32v32H0z"/><path d="M26 19H6v-4a10.013 10.013 0 019-9.949V2a1 1 0 012 0v3.051A10.013 10.013 0 0126 15zm0 2H6a3 3 0 000 6h7.184A2.966 2.966 0 0013 28a3 3 0 006 0 2.966 2.966 0 00-.184-1H26a3 3 0 000-6z" fill="#364f6b"/></svg><svg viewBox="0 0 32 32" width="32" height="32" id="notification_disable" x="160" y="192" xmlns="http://www.w3.org/2000/svg"><g data-name="notification disable"><path fill="none" d="M0 0h32v32H0z"/><path d="M22.758 27h-3.942A2.966 2.966 0 0119 28a3 3 0 01-6 0 2.966 2.966 0 01.184-1H6a3 3 0 010-6h10.758zM29 24a3 3 0 00-3-3h-3.586l-2-2H26v-4a10.013 10.013 0 00-9-9.949V2a1 1 0 00-2 0v3.056a9.951 9.951 0 00-5.85 2.68L6.707 5.293a1 1 0 00-1.414 1.414l21 21a1 1 0 001.414 0 .989.989 0 00.069-1.311A2.966 2.966 0 0029 24zM6 15v4h8.758l-7.944-7.944A9.94 9.94 0 006 15z" fill="#364f6b"/></g></svg><svg viewBox="0 0 32 32" width="32" height="32" id="paste" x="192" y="192" xmlns="http://www.w3.org/2000/svg"><path fill="none" d="M0 0h32v32H0z"/><path d="M22.5 4a3 3 0 01-3 3h-7a3 3 0 010-6h7a3 3 0 013 3zM28 6v22a3 3 0 01-3 3H7a3 3 0 01-3-3V6a3 3 0 013-3h.6a5 5 0 004.9 6h7a5 5 0 004.9-6h.6a3 3 0 013 3zm-5 20a1 1 0 00-1-1H10a1 1 0 000 2h12a1 1 0 001-1zm0-6a1 1 0 00-1-1H10a1 1 0 000 2h12a1 1 0 001-1zm0-6a1 1 0 00-1-1H10a1 1 0 000 2h12a1 1 0 001-1z" fill="#364f6b"/></svg><svg viewBox="0 0 32 32" width="32" height="32" id="plus" x="224" xmlns="http://www.w3.org/2000/svg"><path fill="none" d="M0 0h32v32H0z"/><path d="M16 1a15 15 0 1015 15A15.017 15.017 0 0016 1zm5 16h-4v4a1 1 0 01-2 0v-4h-4a1 1 0 010-2h4v-4a1 1 0 012 0v4h4a1 1 0 010 2z" fill="#364f6b"/></svg><svg viewBox="0 0 32 32" width="32" height="32" id="power_sign" x="224" y="32" xmlns="http://www.w3.org/2000/svg"><g data-name="power sign"><path fill="none" d="M0 0h32v32H0z"/><path d="M16 31a12.994 12.994 0 01-4.334-25.246 1 1 0 01.668 1.886 11 11 0 107.332 0 1 1 0 01.668-1.886A12.994 12.994 0 0116 31zm1-19V2a1 1 0 00-2 0v10a1 1 0 002 0z" fill="#364f6b"/></g></svg><svg viewBox="0 0 32 32" width="32" height="32" id="print" x="224" y="64" xmlns="http://www.w3.org/2000/svg"><g data-name="print alt"><path fill="none" d="M0 0h32v32H0z"/><path d="M23 17H9a1 1 0 00-1 1v11a2 2 0 002 2h12a2 2 0 002-2V18a1 1 0 00-1-1zm-4 11h-6a1 1 0 010-2h6a1 1 0 010 2zm0-5h-6a1 1 0 010-2h6a1 1 0 010 2zm4.414-18h-3.372V1.628zM8 9V3a2 2 0 012-2h8.042v5a1 1 0 001 1H24v2zm23 4v13a1 1 0 01-1 1h-4v-9a3 3 0 00-3-3H9a3 3 0 00-3 3v9H2a1 1 0 01-1-1V13a2 2 0 012-2h26a2 2 0 012 2z" fill="#364f6b"/></g></svg><svg viewBox="0 0 32 32" width="32" height="32" id="puzzle" x="224" y="96" xmlns="http://www.w3.org/2000/svg"><path fill="none" d="M0 0h32v32H0z"/><path d="M23 20a3 3 0 003 3 1 1 0 011 1v5a2 2 0 01-2 2H7a2 2 0 01-2-2V11a2 2 0 012-2h4.11a5.417 5.417 0 01-.61-2.5A5.5 5.5 0 1120.9 9H25a2 2 0 012 2v5a1 1 0 01-1 1 3 3 0 00-3 3z" fill="#364f6b"/></svg><svg viewBox="0 0 32 32" width="32" height="32" id="refresh" x="224" y="128" xmlns="http://www.w3.org/2000/svg"><path fill="none" d="M0 0h32v32H0z"/><path d="M28 15.857a11.819 11.819 0 01-7.637 11.075 1 1 0 01-1.295-.563.988.988 0 01.568-1.283A9.881 9.881 0 0018 6.153l.828 1.231a.984.984 0 01-.277 1.374 1.006 1.006 0 01-1.387-.275l-2-2.971a.989.989 0 010-1.1l2-2.971a1 1 0 011.387-.275.983.983 0 01.277 1.373l-1.06 1.576A11.931 11.931 0 0128 15.857zM14.229 27.884l-1.06 1.576a.983.983 0 00.277 1.373 1 1 0 001.387-.275l2-2.971a.989.989 0 000-1.1l-2-2.971a1.006 1.006 0 00-1.387-.275.984.984 0 00-.277 1.374L14 25.847a9.881 9.881 0 01-1.636-18.933.988.988 0 00.568-1.283 1 1 0 00-1.295-.563 11.851 11.851 0 002.592 22.816z" fill="#364f6b"/></svg><svg viewBox="0 0 32 32" width="32" height="32" id="reply" x="224" y="160" xmlns="http://www.w3.org/2000/svg"><path fill="none" d="M0 0h32v32H0z"/><path d="M31 15v7a1 1 0 01-1.515.858L24.723 20H12v4a1 1 0 01-1.665.747l-9-8a1 1 0 010-1.494l9-8A1 1 0 0112 8v4h16a3 3 0 013 3z" fill="#364f6b"/></svg><svg viewBox="0 0 32 32" width="32" height="32" id="reply_all" x="224" y="192" xmlns="http://www.w3.org/2000/svg"><g data-name="reply all"><path fill="none" d="M0 0h32v32H0z"/><path d="M31 15v7a1 1 0 01-1.515.858L24.723 20H17v4a1 1 0 01-1.707.707l-8-8a1 1 0 010-1.414l8-8A1 1 0 0117 8v4h11a3 3 0 013 3zM3.414 16l7.293-7.293a1 1 0 10-1.414-1.414l-8 8a1 1 0 000 1.414l8 8a1 1 0 001.414-1.414z" fill="#364f6b"/></g></svg><svg viewBox="0 0 32 32" width="32" height="32" id="right" y="224" xmlns="http://www.w3.org/2000/svg"><path fill="none" d="M0 0h32v32H0z"/><path d="M21.672 7.253l9.007 8a1.03 1.03 0 010 1.494l-9.006 8A1 1 0 0120.008 24v-4H9v-8h11.008V8a1 1 0 011.664-.747zM7 12H2a1 1 0 00-1 1v6a1 1 0 001 1h5v-8z" fill="#364f6b"/></svg><svg viewBox="0 0 32 32" width="32" height="32" id="save" x="32" y="224" xmlns="http://www.w3.org/2000/svg"><path fill="none" d="M0 0h32v32H0z"/><path d="M31 10v19a2 2 0 01-2 2h-2V18a5.006 5.006 0 00-5-5H10a5.006 5.006 0 00-5 5v13H3a2 2 0 01-2-2V3a2 2 0 012-2h19a1 1 0 01.707.293l8 8A1 1 0 0131 10zm-9 5H10a3 3 0 00-3 3v13h18V18a3 3 0 00-3-3z" fill="#364f6b"/></svg><svg viewBox="0 0 32 32" width="32" height="32" id="screenshot" x="64" y="224" xmlns="http://www.w3.org/2000/svg"><path fill="none" d="M0 0h32v32H0z"/><path d="M2 7a1 1 0 01-1-1V2a1 1 0 011-1h4a1 1 0 010 2H3v3a1 1 0 01-1 1zm29-1V2a1 1 0 00-1-1h-4a1 1 0 000 2h3v3a1 1 0 002 0zM7 30a1 1 0 00-1-1H3v-3a1 1 0 00-2 0v4a1 1 0 001 1h4a1 1 0 001-1zm24 0v-4a1 1 0 00-2 0v3h-3a1 1 0 000 2h4a1 1 0 001-1zM16 7a9 9 0 109 9 9.011 9.011 0 00-9-9z" fill="#364f6b"/></svg><svg viewBox="0 0 32 32" width="32" height="32" id="search_alt" x="96" y="224" xmlns="http://www.w3.org/2000/svg"><g data-name="search alt"><path fill="none" d="M0 0h32v32H0z"/><path d="M21.483 21.484a12 12 0 110-16.974 12.017 12.017 0 010 16.974zm9.224 7.809l-7.138-7.138c-.218.251-.433.5-.671.743s-.49.454-.742.673l7.137 7.136a1 1 0 001.414-1.414z" fill="#364f6b"/></g></svg><svg viewBox="0 0 32 32" width="32" height="32" id="search_check" x="128" y="224" xmlns="http://www.w3.org/2000/svg"><g data-name="search check alt"><path fill="none" d="M0 0h32v32H0z"/><path d="M21.484 4.51a12 12 0 100 16.974 12.016 12.016 0 000-16.974zM16.7 11.7l-4 4a1 1 0 01-1.415 0l-2-2a1 1 0 011.415-1.411l1.3 1.294 3.294-3.294A1 1 0 1116.7 11.7zm14 19a1 1 0 01-1.414 0l-7.137-7.136c.252-.219.5-.435.742-.673s.453-.492.671-.743l7.138 7.138a1 1 0 01.007 1.421z" fill="#364f6b"/></g></svg><svg viewBox="0 0 32 32" width="32" height="32" id="search_cross" x="160" y="224" xmlns="http://www.w3.org/2000/svg"><g data-name="search cross alt"><path fill="none" d="M0 0h32v32H0z"/><path d="M30.707 30.707a1 1 0 01-1.414 0l-7.137-7.136c.252-.219.5-.435.742-.673s.453-.492.671-.743l7.138 7.138a1 1 0 010 1.414zm-9.224-9.223a12 12 0 110-16.974 12.017 12.017 0 010 16.974zM14.411 13l2.289-2.3a1 1 0 10-1.41-1.411L13 11.582l-2.3-2.293A1 1 0 109.289 10.7l2.293 2.3-2.293 2.29A1 1 0 1010.7 16.7l2.3-2.289 2.29 2.289a1 1 0 001.41-1.41z" fill="#364f6b"/></g></svg><svg viewBox="0 0 32 32" width="32" height="32" id="search_minus" x="192" y="224" xmlns="http://www.w3.org/2000/svg"><g data-name="search minus alt"><path fill="none" d="M0 0h32v32H0z"/><path d="M30.707 30.707a1 1 0 01-1.414 0l-7.137-7.136c.252-.219.5-.435.742-.673s.453-.492.671-.743l7.138 7.138a1 1 0 010 1.414zm-9.223-9.223a12 12 0 110-16.974 12.017 12.017 0 010 16.974zM18 13a1 1 0 00-1-1H9a1 1 0 000 2h8a1 1 0 001-1z" fill="#364f6b"/></g></svg><svg viewBox="0 0 32 32" width="32" height="32" id="search_plus" x="224" y="224" xmlns="http://www.w3.org/2000/svg"><g data-name="search plus alt"><path fill="none" d="M0 0h32v32H0z"/><path d="M30.707 30.707a1 1 0 01-1.414 0l-7.137-7.136c.251-.219.5-.435.742-.673s.453-.492.671-.743l7.138 7.138a1 1 0 010 1.414zm-9.224-9.223a12 12 0 110-16.974 12.017 12.017 0 010 16.974zM18 13a1 1 0 00-1-1h-3V9a1 1 0 00-2 0v3H9a1 1 0 100 2h3v3a1 1 0 102 0v-3h3a1 1 0 001-1z" fill="#364f6b"/></g></svg><svg viewBox="0 0 32 32" width="32" height="32" id="share" x="256" xmlns="http://www.w3.org/2000/svg"><path fill="none" d="M0 0h32v32H0z"/><path d="M31 16a7 7 0 11-7-7 7.008 7.008 0 017 7zM6 11a4.974 4.974 0 003.924-1.939l6.129 2.724a9.034 9.034 0 011.158-1.675l-6.394-2.842A4.96 4.96 0 0011 6a5 5 0 10-5 5zm10.053 9.215l-6.129 2.724a5.177 5.177 0 10.893 1.793l6.394-2.842a9.067 9.067 0 01-1.158-1.675z" fill="#364f6b"/></svg><svg viewBox="0 0 32 32" width="32" height="32" id="shield" x="256" y="32" xmlns="http://www.w3.org/2000/svg"><path fill="none" d="M0 0h32v32H0z"/><path d="M1.023 8.031a1.03 1.03 0 01.583-1.161L15 1v13.968H2.531zM17 14.968h12.469l1.508-6.937a1.03 1.03 0 00-.583-1.161L17 1zm0 2.045V31l9.371-3.833a1.024 1.024 0 00.606-.728l2.048-9.426zm-2 0H2.975l2.048 9.426a1.024 1.024 0 00.606.728L15 31z" fill="#364f6b"/></svg><svg viewBox="0 0 32 32" width="32" height="32" id="snooze" x="256" y="64" xmlns="http://www.w3.org/2000/svg"><path fill="none" d="M0 0h32v32H0z"/><path d="M28.707 11.707a1 1 0 01-1.414 0l-4-4a1 1 0 011.414-1.414l4 4a1 1 0 010 1.414zm-24 0l4-4a1 1 0 00-1.414-1.414l-4 4a1 1 0 001.414 1.414zM28 19A12 12 0 1112.848 7.434 3.957 3.957 0 0112 5a4 4 0 018 0 3.957 3.957 0 01-.848 2.434A12.011 12.011 0 0128 19zM16 7a2 2 0 10-2-2 2 2 0 002 2zm4 15a1 1 0 00-1-1h-3.586l4.293-4.293A1 1 0 0019 15h-6a1 1 0 000 2h3.586l-4.293 4.293A1 1 0 0013 23h6a1 1 0 001-1z" fill="#364f6b"/></svg><svg viewBox="0 0 32 32" width="32" height="32" id="star" x="256" y="96" xmlns="http://www.w3.org/2000/svg"><path fill="none" d="M0 0h32v32H0z"/><path d="M30.555 13.829l-8.325 5.549 3.7 9.246a1 1 0 01-1.484 1.2L16 24.2l-8.445 5.63a1 1 0 01-1.484-1.2l3.7-9.246-8.326-5.555A1 1 0 012 12h9.323l3.748-9.37a1 1 0 011.858 0L20.677 12H30a1 1 0 01.555 1.829z" fill="#364f6b"/></svg><svg viewBox="0 0 32 32" width="32" height="32" id="stars" x="256" y="128" xmlns="http://www.w3.org/2000/svg"><path fill="none" d="M0 0h32v32H0z"/><path d="M2 10a1 1 0 010-2 6.006 6.006 0 006-6 1 1 0 012 0 6.006 6.006 0 006 6 1 1 0 010 2 6.006 6.006 0 00-6 6 1 1 0 01-2 0 6.006 6.006 0 00-6-6zm28 3a6.006 6.006 0 01-6-6 1 1 0 00-2 0 6.006 6.006 0 01-6 6 1 1 0 000 2 6.006 6.006 0 016 6 1 1 0 002 0 6.006 6.006 0 016-6 1 1 0 000-2zM19 23a5.006 5.006 0 01-5-5 1 1 0 00-2 0 5.006 5.006 0 01-5 5 1 1 0 000 2 5.006 5.006 0 015 5 1 1 0 002 0 5.006 5.006 0 015-5 1 1 0 000-2z" fill="#364f6b"/></svg><svg viewBox="0 0 32 32" width="32" height="32" id="sync" x="256" y="160" xmlns="http://www.w3.org/2000/svg"><path fill="none" d="M0 0h32v32H0z"/><path d="M31 16v14a1 1 0 01-1 1H20a1 1 0 01-1-1V16a1 1 0 011-1h10a1 1 0 011 1zM12 1H2a1 1 0 00-1 1v14a1 1 0 001 1h10a1 1 0 001-1V2a1 1 0 00-1-1zm4 28H7a1 1 0 01-1-1v-5.586l1.293 1.293a1 1 0 001.414-1.414l-3-3a1 1 0 00-1.416 0l-3 3a1 1 0 001.414 1.414L4 22.414V28a3 3 0 003 3h9a1 1 0 000-2zm0-26h9a1 1 0 011 1v5.586l-1.293-1.293a1 1 0 00-1.414 1.414l3 3a1 1 0 001.416 0l3-3a1 1 0 00-1.414-1.414L28 9.586V4a3 3 0 00-3-3h-9a1 1 0 000 2z" fill="#364f6b"/></svg><svg viewBox="0 0 32 32" width="32" height="32" id="task" x="256" y="192" xmlns="http://www.w3.org/2000/svg"><path fill="none" d="M0 0h32v32H0z"/><path d="M11 5v8a1 1 0 01-1 1H2a1 1 0 01-1-1V5a1 1 0 011-1h8a1 1 0 011 1zm20 0a1 1 0 00-1-1H16a1 1 0 000 2h14a1 1 0 001-1zm-4 6a1 1 0 00-1-1H16a1 1 0 000 2h10a1 1 0 001-1zm-17 7H2a1 1 0 00-1 1v8a1 1 0 001 1h8a1 1 0 001-1v-8a1 1 0 00-1-1zm21 1a1 1 0 00-1-1H16a1 1 0 000 2h14a1 1 0 001-1zm-4 6a1 1 0 00-1-1H16a1 1 0 000 2h10a1 1 0 001-1z" fill="#364f6b"/></svg><svg viewBox="0 0 32 32" width="32" height="32" id="time" x="256" y="224" xmlns="http://www.w3.org/2000/svg"><path fill="none" d="M0 0h32v32H0z"/><path d="M16 1a15 15 0 1015 15A14.992 14.992 0 0016 1zm4.707 19.707a1 1 0 01-1.414 0l-4-4A1.014 1.014 0 0115 16V6a1 1 0 012 0v9.586l3.707 3.707a1 1 0 010 1.414z" fill="#364f6b"/></svg><svg viewBox="0 0 32 32" width="32" height="32" id="trash" y="256" xmlns="http://www.w3.org/2000/svg"><path fill="none" d="M0 0h32v32H0z"/><path d="M31 8a1 1 0 01-1 1H2a1 1 0 010-2h3.279l1.544-4.633A2 2 0 018.721 1h14.558a2 2 0 011.9 1.368L26.72 7H30a1 1 0 011 1zM5.4 11h21.2l-2.491 18.271A2.007 2.007 0 0122.127 31H9.873a2.008 2.008 0 01-1.982-1.729zM18 28a1 1 0 002 0V14a1 1 0 00-2 0zm-6 0a1 1 0 002 0V14a1 1 0 00-2 0z" fill="#364f6b"/></svg><svg viewBox="0 0 32 32" width="32" height="32" id="trash_empty" x="32" y="256" xmlns="http://www.w3.org/2000/svg"><g data-name="trash empty"><path fill="none" d="M0 0h32v32H0z"/><path d="M30 7h-8V4a3 3 0 00-3-3h-6a3 3 0 00-3 3v3H2a1 1 0 000 2h28a1 1 0 000-2zM12 7V4a1 1 0 011-1h6a1 1 0 011 1v3zM7.681 30.164a1 1 0 00.986.836h14.666a1 1 0 00.986-.836L27.514 11H4.486zM18 16a1 1 0 012 0v10a1 1 0 01-2 0zm-6 0a1 1 0 012 0v10a1 1 0 01-2 0z" fill="#364f6b"/></g></svg><svg viewBox="0 0 32 32" width="32" height="32" id="trash_full" x="64" y="256" xmlns="http://www.w3.org/2000/svg"><g data-name="trash full"><path fill="none" d="M0 0h32v32H0z"/><path d="M30 7H2a1 1 0 000 2h2.153L7.68 30.164a1 1 0 00.987.836h14.666a1 1 0 00.987-.836L27.847 9H30a1 1 0 000-2zM14 24a1 1 0 01-2 0V14a1 1 0 012 0zm6 0a1 1 0 01-2 0V14a1 1 0 012 0zm3.414-19H8.586l3.707-3.707a1 1 0 011.414 0L16 3.586l2.293-2.293a1 1 0 011.414 0z" fill="#364f6b"/></g></svg><svg viewBox="0 0 32 32" width="32" height="32" id="umbrella" x="96" y="256" xmlns="http://www.w3.org/2000/svg"><path fill="none" d="M0 0h32v32H0z"/><path d="M29 16a1 1 0 01-2 0c0-1.084-1.374-2-3-2s-3 .916-3 2a1 1 0 01-2 0c0-.851-.85-1.59-2-1.873V27.5a3.5 3.5 0 01-7 0V26a1 1 0 012 0v1.5a1.5 1.5 0 003 0V14.127c-1.15.283-2 1.022-2 1.873a1 1 0 01-2 0c0-1.084-1.374-2-3-2s-3 .916-3 2a1 1 0 01-2 0A13.009 13.009 0 0115 3.051V2a1 1 0 012 0v1.051A13.009 13.009 0 0129 16z" fill="#364f6b"/></svg><svg viewBox="0 0 32 32" width="32" height="32" id="unlock" x="128" y="256" xmlns="http://www.w3.org/2000/svg"><path fill="none" d="M0 0h32v32H0z"/><path d="M25 13H9V9.888A6.9 6.9 0 0115.888 3h.224A6.9 6.9 0 0123 9.888V10a1 1 0 002 0v-.112A8.9 8.9 0 0016.112 1h-.224A8.9 8.9 0 007 9.888V13a3 3 0 00-3 3v12a3 3 0 003 3h18a3 3 0 003-3V16a3 3 0 00-3-3zm-8 10.483V26a1 1 0 01-2 0v-2.517a3 3 0 112 0z" fill="#364f6b"/></svg><svg viewBox="0 0 32 32" width="32" height="32" id="up" x="160" y="256" xmlns="http://www.w3.org/2000/svg"><path fill="none" d="M0 0h32v32H0z"/><path d="M24 11.992h-4V23h-8V11.992H8a1 1 0 01-.748-1.665l8-9.006a1.03 1.03 0 011.494 0l8 9.007A1 1 0 0124 11.992zM20 25h-8v5a1 1 0 001 1h6a1 1 0 001-1v-5z" fill="#364f6b"/></svg><svg viewBox="0 0 32 32" width="32" height="32" id="upload" x="192" y="256" xmlns="http://www.w3.org/2000/svg"><path fill="none" d="M0 0h32v32H0z"/><path d="M16 31A15 15 0 101 16a15.017 15.017 0 0015 15zm-3.707-18.707l3-3a1 1 0 011.414 0l3 3a1 1 0 01-1.414 1.414L17 12.414V22a1 1 0 01-2 0v-9.586l-1.293 1.293a1 1 0 01-1.414-1.414z" fill="#364f6b"/></svg><svg viewBox="0 0 32 32" width="32" height="32" id="upload_queue" x="224" y="256" xmlns="http://www.w3.org/2000/svg"><g data-name="upload queue"><path fill="none" d="M0 0h32v32H0z"/><path d="M7.293 8.706L6 7.413V13a1 1 0 01-2 0V7.413L2.707 8.706a1 1 0 01-1.414-1.414l3-3a1 1 0 011.416 0l3 3a1 1 0 01-1.416 1.414zM31 9a1 1 0 00-1-1H13a1 1 0 000 2h17a1 1 0 001-1zM8.707 22.706a1 1 0 000-1.414l-3-3a1 1 0 00-1.416 0l-3 3a1 1 0 101.414 1.414L4 21.413V27a1 1 0 002 0v-5.587l1.293 1.293a1 1 0 001.414 0zM12 23a1 1 0 001 1h17a1 1 0 000-2H13a1 1 0 00-1 1z" fill="#364f6b"/></g></svg><svg viewBox="0 0 32 32" width="32" height="32" id="user" x="256" y="256" xmlns="http://www.w3.org/2000/svg"><path fill="none" d="M0 0h32v32H0z"/><path d="M31 30a1 1 0 01-1 1H2a1 1 0 01-1-1 15 15 0 018.441-13.469 9.947 9.947 0 0013.118 0A15 15 0 0131 30zM16 1a8 8 0 108 8 8.009 8.009 0 00-8-8z" fill="#364f6b"/></svg><svg viewBox="0 0 32 32" width="32" height="32" id="verification" x="288" xmlns="http://www.w3.org/2000/svg"><path fill="none" d="M0 0h32v32H0z"/><path d="M29 1H3a2 2 0 00-2 2v27a1 1 0 001.5.868L9 27.151l6.5 3.716a1 1 0 00.992 0L23 27.151l6.5 3.716A1 1 0 0031 30V3a2 2 0 00-2-2zm-5.336 10.747l-9 8a1 1 0 01-1.372-.04l-5-5a1 1 0 011.414-1.414l4.334 4.332 8.295-7.372a1 1 0 011.328 1.494z" fill="#364f6b"/></svg><svg viewBox="0 0 32 32" width="32" height="32" id="verification_fail" x="288" y="32" xmlns="http://www.w3.org/2000/svg"><g data-name="verification fail"><path fill="none" d="M0 0h32v32H0z"/><path d="M29 1H3a2 2 0 00-2 2v27a1 1 0 001.5.868L9 27.15l6.5 3.717a1 1 0 00.992 0L23 27.15l6.5 3.717A1 1 0 0031 30V3a2 2 0 00-2-2zm-6.293 18.292a1 1 0 11-1.414 1.414L16 15.414l-5.293 5.292a1 1 0 11-1.414-1.414L14.586 14 9.293 8.707a1 1 0 111.414-1.414L16 12.586l5.293-5.293a1 1 0 111.414 1.414L17.414 14z" fill="#364f6b"/></g></svg><svg viewBox="0 0 32 32" width="32" height="32" id="wrench" x="288" y="64" xmlns="http://www.w3.org/2000/svg"><path fill="none" d="M0 0h32v32H0z"/><path d="M23 5.363v7.091a1 1 0 01-.321.734L20 15.665V27a4 4 0 01-8 0V15.665l-2.679-2.477A1 1 0 019 12.454V5.363a1 1 0 01.356-.763l4-3.364A1 1 0 0115 2v5.909h2V2a1 1 0 011.644-.766l4 3.364a1 1 0 01.356.765z" fill="#364f6b"/></svg><svg viewBox="0 0 32 32" width="32" height="32" id="write" x="288" y="96" xmlns="http://www.w3.org/2000/svg"><path fill="none" d="M0 0h32v32H0z"/><path d="M30.707 12.707l-12 12A1 1 0 0118 25h-4a1 1 0 01-1-1v-4a1 1 0 01.293-.707l12-12a1 1 0 011.414 0l4 4a1 1 0 010 1.414zM10 19a1 1 0 00-1-1H2a1 1 0 000 2h7a1 1 0 001-1zm5-5a1 1 0 00-1-1H2a1 1 0 000 2h12a1 1 0 001-1zm-5-5a1 1 0 00-1-1H2a1 1 0 000 2h7a1 1 0 001-1zm1 15v-1H2a1 1 0 000 2h9.184A2.966 2.966 0 0111 24z" fill="#364f6b"/></svg></svg>