<svg xmlns="http://www.w3.org/2000/svg" viewBox="0 0 32 32"><title>alarm</title><g id="alarm"><rect width="32" height="32" style="fill:none"/><path d="M3.293,11.707a1,1,0,0,1,0-1.414l4-4A1,1,0,0,1,8.707,7.707l-4,4A1,1,0,0,1,3.293,11.707Zm25.414-1.414-4-4a1,1,0,0,0-1.414,1.414l4,4a1,1,0,0,0,1.414-1.414ZM28,19A12,12,0,1,1,12.848,7.434,3.964,3.964,0,0,1,12,5a4,4,0,0,1,8,0,3.957,3.957,0,0,1-.848,2.434A12.011,12.011,0,0,1,28,19ZM16,7a2,2,0,1,0-2-2A2,2,0,0,0,16,7Zm1,6a1,1,0,0,0-2,0v5H12a1,1,0,0,0,0,2h4a1,1,0,0,0,1-1Z" style="fill:#364f6b"/></g></svg>