<svg xmlns="http://www.w3.org/2000/svg" viewBox="0 0 32 32"><title>bug</title><g id="bug"><rect width="32" height="32" style="fill:none"/><path d="M30,18a1,1,0,0,1-1,1H25v3c0,.126-.014.248-.019.372l3.466,1.733a1,1,0,1,1-.894,1.79l-2.9-1.45a8.99,8.99,0,0,1-17.308,0l-2.9,1.45a1,1,0,0,1-.894-1.79l3.466-1.733C7.014,22.248,7,22.126,7,22V19H3a1,1,0,0,1,0-2H7V14c0-.126.014-.248.019-.372L3.553,11.9a1,1,0,1,1,.894-1.79l2.9,1.45a9.027,9.027,0,0,1,6.209-6.209l-1.45-2.9a1,1,0,1,1,1.79-.894l1.733,3.466c.124,0,.246-.019.372-.019s.248.014.372.019l1.733-3.466a1,1,0,0,1,1.79.894l-1.45,2.9a9.027,9.027,0,0,1,6.209,6.209l2.9-1.45a1,1,0,0,1,.894,1.79l-3.466,1.733c0,.124.019.246.019.372v3h4A1,1,0,0,1,30,18Z" style="fill:#364f6b"/></g></svg>