<svg xmlns="http://www.w3.org/2000/svg" viewBox="0 0 32 32"><title>cloud disable</title><g id="cloud_disable" data-name="cloud disable"><rect width="32" height="32" style="fill:none"/><path d="M7.079,11.321,20.758,25H5a4,4,0,0,1-4-4,3.957,3.957,0,0,1,2.027-3.467C3.009,17.352,3,17.175,3,17A6.007,6.007,0,0,1,7.079,11.321ZM31,18a7.008,7.008,0,0,0-7-7,6.9,6.9,0,0,0-1.6.186A6.991,6.991,0,0,0,10.768,9.354L6.707,5.293A1,1,0,0,0,5.293,6.707l20,20a1,1,0,0,0,1.414-1.414l-.622-.622A7,7,0,0,0,31,18Z" style="fill:#364f6b"/></g></svg>