<svg xmlns="http://www.w3.org/2000/svg" viewBox="0 0 32 32"><title>cloud upload</title><g id="cloud_upload" data-name="cloud upload"><rect width="32" height="32" style="fill:none"/><path d="M19.707,18.707a1,1,0,0,1-1.414,0L17,17.414V27a1,1,0,0,1-2,0V17.414l-1.293,1.293a1,1,0,0,1-1.414-1.414l3-3a1,1,0,0,1,1.414,0l3,3A1,1,0,0,1,19.707,18.707ZM24,8a6.9,6.9,0,0,0-1.6.186,7,7,0,0,0-12.75-.144A5.224,5.224,0,0,0,9,8a6.006,6.006,0,0,0-6,6c0,.175.009.352.027.533A3.957,3.957,0,0,0,1,18a4,4,0,0,0,4,4h8V21a3,3,0,0,1-2.121-5.121l3-3a3.005,3.005,0,0,1,4.244,0l3,3A3,3,0,0,1,19,21v1h5A7,7,0,0,0,24,8Z" style="fill:#364f6b"/></g></svg>