<svg xmlns="http://www.w3.org/2000/svg" viewBox="0 0 32 32"><title>cloud download</title><g id="cloud_download" data-name="cloud download"><rect width="32" height="32" style="fill:none"/><path d="M19.707,24.708l-3,3a1,1,0,0,1-1.416,0l-3-3a1,1,0,1,1,1.414-1.414L15,24.586V15a1,1,0,1,1,2,0v9.585l1.293-1.292a1,1,0,1,1,1.414,1.414ZM24,8a6.9,6.9,0,0,0-1.6.186,7,7,0,0,0-12.75-.144A5.041,5.041,0,0,0,9,8a6.006,6.006,0,0,0-6,6c0,.174.009.351.027.532A3.957,3.957,0,0,0,1,18a4,4,0,0,0,4,4h8V15a3,3,0,1,1,6,0v7h5A7,7,0,0,0,24,8Z" style="fill:#364f6b"/></g></svg>