<svg xmlns="http://www.w3.org/2000/svg" viewBox="0 0 32 32"><title>cogwheel alt</title><g id="cogwheel_alt" data-name="cogwheel alt"><rect width="32" height="32" style="fill:none"/><path d="M29.554,20.168l-2.8-1.869a10.738,10.738,0,0,0,0-4.6l2.8-1.869a1,1,0,0,0,.34-1.279l-2-4a1,1,0,0,0-1.449-.385L23.6,8.063A10.869,10.869,0,0,0,19,5.415V2a1,1,0,0,0-1-1H14a1,1,0,0,0-1,1V5.415A10.869,10.869,0,0,0,8.4,8.063l-2.843-1.9a1,1,0,0,0-1.449.385l-2,4a1,1,0,0,0,.34,1.279l2.8,1.869a10.738,10.738,0,0,0,0,4.6l-2.8,1.869a1,1,0,0,0-.34,1.279l2,4a1,1,0,0,0,1.449.385L8.4,23.937A10.869,10.869,0,0,0,13,26.585V30a1,1,0,0,0,1,1h4a1,1,0,0,0,1-1V26.585a10.869,10.869,0,0,0,4.6-2.648l2.843,1.895a1,1,0,0,0,1.449-.385l2-4A1,1,0,0,0,29.554,20.168ZM16,21a5,5,0,1,1,5-5A5,5,0,0,1,16,21Z" style="fill:#364f6b"/></g></svg>