<svg xmlns="http://www.w3.org/2000/svg" viewBox="0 0 32 32"><title>eye close</title><g id="eye_close" data-name="eye close"><rect width="32" height="32" style="fill:none"/><path d="M30.912,13.41C30.754,13.761,26.919,22,16,22S1.246,13.761,1.088,13.41a1,1,0,0,1,0-.82C1.246,12.239,5.081,4,16,4s14.754,8.239,14.912,8.59A1,1,0,0,1,30.912,13.41Zm-5.046,8.042a17.339,17.339,0,0,1-1.872.956l2.3,2.3a1,1,0,0,0,1.414-1.414ZM16,24c-.347,0-.665-.033-1-.048V27a1,1,0,0,0,2,0V23.952C16.665,23.967,16.347,24,16,24ZM6.134,21.452,4.293,23.293a1,1,0,0,0,1.414,1.414l2.3-2.3A17.522,17.522,0,0,1,6.134,21.452Z" style="fill:#364f6b"/></g></svg>