<svg xmlns="http://www.w3.org/2000/svg" viewBox="0 0 32 32"><title>eye open</title><g id="eye_open" data-name="eye open"><rect width="32" height="32" style="fill:none"/><path d="M30.912,18.59a15.446,15.446,0,0,0-6.5-6.585l3.3-3.3a1,1,0,1,0-1.414-1.414L22.456,11.13A17.9,17.9,0,0,0,17,10.047V5a1,1,0,0,0-2,0v5.047A17.9,17.9,0,0,0,9.544,11.13L5.707,7.293A1,1,0,1,0,4.293,8.707l3.3,3.3a15.446,15.446,0,0,0-6.5,6.585,1,1,0,0,0,0,.82C1.246,19.761,5.081,28,16,28s14.754-8.239,14.912-8.59A1,1,0,0,0,30.912,18.59ZM16,25a6,6,0,1,1,6-6A6.006,6.006,0,0,1,16,25Z" style="fill:#364f6b"/></g></svg>