<svg xmlns="http://www.w3.org/2000/svg" viewBox="0 0 32 32"><title>female user alt</title><g id="female_user_alt" data-name="female user alt"><rect width="32" height="32" style="fill:none"/><path d="M30,31H2a1,1,0,0,1-.955-1.3A15.419,15.419,0,0,1,11.551,19.644a7.977,7.977,0,0,0,8.9,0A15.419,15.419,0,0,1,30.954,29.7,1,1,0,0,1,30,31ZM16,1A12.013,12.013,0,0,0,4,13v7a.986.986,0,0,0,.77.954A18.062,18.062,0,0,1,9.844,18.1a7.949,7.949,0,0,1-1.06-8.533A1,1,0,0,1,9.686,9H22.314a1,1,0,0,1,.9.569,7.949,7.949,0,0,1-1.06,8.533,18.062,18.062,0,0,1,5.073,2.852A.987.987,0,0,0,28,20V13A12.013,12.013,0,0,0,16,1Z" style="fill:#364f6b"/></g></svg>