<svg xmlns="http://www.w3.org/2000/svg" viewBox="0 0 32 32"><title>loading</title><g id="loading"><rect width="32" height="32" style="fill:none"/><path d="M16,1A15,15,0,1,0,31,16,14.992,14.992,0,0,0,16,1Zm4.293,9.293,2-2a1,1,0,0,1,1.414,1.414l-2,2a1,1,0,0,1-1.414-1.414ZM11.707,21.707l-2,2a1,1,0,0,1-1.414-1.414l2-2a1,1,0,0,1,1.414,1.414ZM17,26a1,1,0,0,1-2,0V24a1,1,0,0,1,2,0ZM17,8a1,1,0,0,1-2,0V6a1,1,0,0,1,2,0Zm6.707,15.707a1,1,0,0,1-1.414,0l-2-2a1,1,0,0,1,1.414-1.414l2,2A1,1,0,0,1,23.707,23.707ZM26,17H24a1,1,0,0,1,0-2h2a1,1,0,0,1,0,2Z" style="fill:#364f6b"/></g></svg>