<svg xmlns="http://www.w3.org/2000/svg" viewBox="0 0 32 32"><title>login</title><g id="login"><rect width="32" height="32" style="fill:none"/><path d="M30.316,5.052l-12-4A1,1,0,0,0,17,2V5H9A2,2,0,0,0,7,7v3a1,1,0,0,0,2,0V7h8V25H9V22a1,1,0,0,0-2,0v3a2,2,0,0,0,2,2h8v3a1,1,0,0,0,1.316.948l12-4A1,1,0,0,0,31,26V6A1,1,0,0,0,30.316,5.052ZM24,17H22a1,1,0,0,1,0-2h2a1,1,0,0,1,0,2ZM11.586,17H2a1,1,0,0,1,0-2h9.586l-1.293-1.293a1,1,0,0,1,1.414-1.414l3,3a1.006,1.006,0,0,1,0,1.415l-3,3a1,1,0,0,1-1.414-1.414Z" style="fill:#364f6b"/></g></svg>