<svg xmlns="http://www.w3.org/2000/svg" viewBox="0 0 32 32"><title>microphone disable</title><g id="microphone_disable" data-name="microphone disable"><rect width="32" height="32" style="fill:none"/><path d="M26.707,26.707a1,1,0,0,1-1.414,0l-20-20A1,1,0,0,1,6.707,5.293L10,8.586V7A6,6,0,0,1,22,7V18a5.945,5.945,0,0,1-.412,2.174l1.5,1.5A7.894,7.894,0,0,0,24,18V13a1,1,0,0,1,2,0v5a9.891,9.891,0,0,1-1.444,5.141l2.151,2.152A1,1,0,0,1,26.707,26.707ZM21,29H11a1,1,0,0,0,0,2H21a1,1,0,0,0,0-2Zm.851-2.907L20.42,24.662A7.993,7.993,0,0,1,8,18V13a1,1,0,0,0-2,0v5a9.983,9.983,0,0,0,15.851,8.093ZM16,24a5.966,5.966,0,0,0,2.968-.79L10,14.242V18A6,6,0,0,0,16,24Z" style="fill:#364f6b"/></g></svg>