<svg xmlns="http://www.w3.org/2000/svg" viewBox="0 0 32 32"><title>notification disable</title><g id="notification_disable" data-name="notification disable"><rect width="32" height="32" style="fill:none"/><path d="M22.758,27H18.816A2.966,2.966,0,0,1,19,28a3,3,0,0,1-6,0,2.966,2.966,0,0,1,.184-1H6a3,3,0,0,1,0-6H16.758ZM29,24a3,3,0,0,0-3-3H22.414l-2-2H26V15a10.013,10.013,0,0,0-9-9.949V2a1,1,0,0,0-2,0V5.056a9.951,9.951,0,0,0-5.85,2.68L6.707,5.293A1,1,0,0,0,5.293,6.707l21,21a1,1,0,0,0,1.414,0,.989.989,0,0,0,.069-1.311A2.966,2.966,0,0,0,29,24ZM6,15v4h8.758L6.814,11.056A9.94,9.94,0,0,0,6,15Z" style="fill:#364f6b"/></g></svg>