<svg xmlns="http://www.w3.org/2000/svg" viewBox="0 0 32 32"><title>paste</title><g id="paste"><rect width="32" height="32" style="fill:none"/><path d="M22.5,4a3,3,0,0,1-3,3h-7a3,3,0,0,1,0-6h7A3,3,0,0,1,22.5,4ZM28,6V28a3,3,0,0,1-3,3H7a3,3,0,0,1-3-3V6A3,3,0,0,1,7,3h.6a5,5,0,0,0,4.9,6h7a5,5,0,0,0,4.9-6H25A3,3,0,0,1,28,6ZM23,26a1,1,0,0,0-1-1H10a1,1,0,0,0,0,2H22A1,1,0,0,0,23,26Zm0-6a1,1,0,0,0-1-1H10a1,1,0,0,0,0,2H22A1,1,0,0,0,23,20Zm0-6a1,1,0,0,0-1-1H10a1,1,0,0,0,0,2H22A1,1,0,0,0,23,14Z" style="fill:#364f6b"/></g></svg>