<svg xmlns="http://www.w3.org/2000/svg" viewBox="0 0 32 32"><title>print alt</title><g id="print_alt" data-name="print alt"><rect width="32" height="32" style="fill:none"/><path d="M23,17H9a1,1,0,0,0-1,1V29a2,2,0,0,0,2,2H22a2,2,0,0,0,2-2V18A1,1,0,0,0,23,17ZM19,28H13a1,1,0,0,1,0-2h6a1,1,0,0,1,0,2Zm0-5H13a1,1,0,0,1,0-2h6a1,1,0,0,1,0,2ZM23.414,5H20.042V1.628ZM8,9V3a2,2,0,0,1,2-2h8.042V6a1,1,0,0,0,1,1H24V9Zm23,4V26a1,1,0,0,1-1,1H26V18a3,3,0,0,0-3-3H9a3,3,0,0,0-3,3v9H2a1,1,0,0,1-1-1V13a2,2,0,0,1,2-2H29A2,2,0,0,1,31,13Z" style="fill:#364f6b"/></g></svg>