<svg xmlns="http://www.w3.org/2000/svg" viewBox="0 0 32 32"><title>search check alt</title><g id="search_check_alt" data-name="search check alt"><rect width="32" height="32" style="fill:none"/><path d="M21.484,4.51a12,12,0,1,0,0,16.974A12.016,12.016,0,0,0,21.484,4.51ZM16.7,11.7l-4,4a1,1,0,0,1-1.415,0l-2-2A1,1,0,0,1,10.7,12.289L12,13.583l3.294-3.294A1,1,0,1,1,16.7,11.7Zm14,19a1,1,0,0,1-1.414,0l-7.137-7.136c.252-.219.5-.435.742-.673s.453-.492.671-.743l7.138,7.138A1,1,0,0,1,30.707,30.707Z" style="fill:#364f6b"/></g></svg>