<svg xmlns="http://www.w3.org/2000/svg" viewBox="0 0 32 32"><title>search plus alt</title><g id="search_plus_alt" data-name="search plus alt"><rect width="32" height="32" style="fill:none"/><path d="M30.707,30.707a1,1,0,0,1-1.414,0l-7.137-7.136c.251-.219.5-.435.742-.673s.453-.492.671-.743l7.138,7.138A1,1,0,0,1,30.707,30.707Zm-9.224-9.223a12,12,0,1,1,0-16.974A12.017,12.017,0,0,1,21.483,21.484ZM18,13a1,1,0,0,0-1-1H14V9a1,1,0,0,0-2,0v3H9a1,1,0,1,0,0,2h3v3a1,1,0,1,0,2,0V14h3A1,1,0,0,0,18,13Z" style="fill:#364f6b"/></g></svg>