<svg xmlns="http://www.w3.org/2000/svg" viewBox="0 0 32 32"><title>search cross alt</title><g id="search_cross_alt" data-name="search cross alt"><rect width="32" height="32" style="fill:none"/><path d="M30.707,30.707a1,1,0,0,1-1.414,0l-7.137-7.136c.252-.219.5-.435.742-.673s.453-.492.671-.743l7.138,7.138A1,1,0,0,1,30.707,30.707Zm-9.224-9.223a12,12,0,1,1,0-16.974A12.017,12.017,0,0,1,21.483,21.484ZM14.411,13,16.7,10.7A1,1,0,1,0,15.29,9.289L13,11.582,10.7,9.289A1,1,0,1,0,9.289,10.7L11.582,13,9.289,15.29A1,1,0,1,0,10.7,16.7L13,14.411,15.29,16.7A1,1,0,0,0,16.7,15.29Z" style="fill:#364f6b"/></g></svg>