<svg xmlns="http://www.w3.org/2000/svg" viewBox="0 0 32 32"><title>snooze</title><g id="snooze"><rect width="32" height="32" style="fill:none"/><path d="M28.707,11.707a1,1,0,0,1-1.414,0l-4-4a1,1,0,0,1,1.414-1.414l4,4A1,1,0,0,1,28.707,11.707Zm-24,0,4-4A1,1,0,0,0,7.293,6.293l-4,4a1,1,0,0,0,1.414,1.414ZM28,19A12,12,0,1,1,12.848,7.434,3.957,3.957,0,0,1,12,5a4,4,0,0,1,8,0,3.957,3.957,0,0,1-.848,2.434A12.011,12.011,0,0,1,28,19ZM16,7a2,2,0,1,0-2-2A2,2,0,0,0,16,7Zm4,15a1,1,0,0,0-1-1H15.414l4.293-4.293A1,1,0,0,0,19,15H13a1,1,0,0,0,0,2h3.586l-4.293,4.293A1,1,0,0,0,13,23h6A1,1,0,0,0,20,22Z" style="fill:#364f6b"/></g></svg>