<svg xmlns="http://www.w3.org/2000/svg" viewBox="0 0 32 32"><title>stars</title><g id="stars"><rect width="32" height="32" style="fill:none"/><path d="M2,10A1,1,0,0,1,2,8,6.006,6.006,0,0,0,8,2a1,1,0,0,1,2,0,6.006,6.006,0,0,0,6,6,1,1,0,0,1,0,2,6.006,6.006,0,0,0-6,6,1,1,0,0,1-2,0A6.006,6.006,0,0,0,2,10Zm28,3a6.006,6.006,0,0,1-6-6,1,1,0,0,0-2,0,6.006,6.006,0,0,1-6,6,1,1,0,0,0,0,2,6.006,6.006,0,0,1,6,6,1,1,0,0,0,2,0,6.006,6.006,0,0,1,6-6,1,1,0,0,0,0-2ZM19,23a5.006,5.006,0,0,1-5-5,1,1,0,0,0-2,0,5.006,5.006,0,0,1-5,5,1,1,0,0,0,0,2,5.006,5.006,0,0,1,5,5,1,1,0,0,0,2,0,5.006,5.006,0,0,1,5-5,1,1,0,0,0,0-2Z" style="fill:#364f6b"/></g></svg>