<svg xmlns="http://www.w3.org/2000/svg" viewBox="0 0 32 32"><title>sync</title><g id="sync"><rect width="32" height="32" style="fill:none"/><path d="M31,16V30a1,1,0,0,1-1,1H20a1,1,0,0,1-1-1V16a1,1,0,0,1,1-1H30A1,1,0,0,1,31,16ZM12,1H2A1,1,0,0,0,1,2V16a1,1,0,0,0,1,1H12a1,1,0,0,0,1-1V2A1,1,0,0,0,12,1Zm4,28H7a1,1,0,0,1-1-1V22.414l1.293,1.293a1,1,0,0,0,1.414-1.414l-3-3a1,1,0,0,0-1.416,0l-3,3a1,1,0,0,0,1.414,1.414L4,22.414V28a3,3,0,0,0,3,3h9a1,1,0,0,0,0-2ZM16,3h9a1,1,0,0,1,1,1V9.586L24.707,8.293a1,1,0,0,0-1.414,1.414l3,3a1,1,0,0,0,1.416,0l3-3a1,1,0,0,0-1.414-1.414L28,9.586V4a3,3,0,0,0-3-3H16a1,1,0,0,0,0,2Z" style="fill:#364f6b"/></g></svg>