<svg xmlns="http://www.w3.org/2000/svg" viewBox="0 0 32 32"><title>task</title><g id="task"><rect width="32" height="32" style="fill:none"/><path d="M11,5v8a1,1,0,0,1-1,1H2a1,1,0,0,1-1-1V5A1,1,0,0,1,2,4h8A1,1,0,0,1,11,5ZM31,5a1,1,0,0,0-1-1H16a1,1,0,0,0,0,2H30A1,1,0,0,0,31,5Zm-4,6a1,1,0,0,0-1-1H16a1,1,0,0,0,0,2H26A1,1,0,0,0,27,11ZM10,18H2a1,1,0,0,0-1,1v8a1,1,0,0,0,1,1h8a1,1,0,0,0,1-1V19A1,1,0,0,0,10,18Zm21,1a1,1,0,0,0-1-1H16a1,1,0,0,0,0,2H30A1,1,0,0,0,31,19Zm-4,6a1,1,0,0,0-1-1H16a1,1,0,0,0,0,2H26A1,1,0,0,0,27,25Z" style="fill:#364f6b"/></g></svg>