<svg xmlns="http://www.w3.org/2000/svg" viewBox="0 0 32 32"><title>umbrella</title><g id="umbrella"><rect width="32" height="32" style="fill:none"/><path d="M29,16a1,1,0,0,1-2,0c0-1.084-1.374-2-3-2s-3,.916-3,2a1,1,0,0,1-2,0c0-.851-.85-1.59-2-1.873V27.5a3.5,3.5,0,0,1-7,0V26a1,1,0,0,1,2,0v1.5a1.5,1.5,0,0,0,3,0V14.127c-1.15.283-2,1.022-2,1.873a1,1,0,0,1-2,0c0-1.084-1.374-2-3-2s-3,.916-3,2a1,1,0,0,1-2,0A13.009,13.009,0,0,1,15,3.051V2a1,1,0,0,1,2,0V3.051A13.009,13.009,0,0,1,29,16Z" style="fill:#364f6b"/></g></svg>