<svg xmlns="http://www.w3.org/2000/svg" viewBox="0 0 32 32"><title>upload queue</title><g id="upload_queue" data-name="upload queue"><rect width="32" height="32" style="fill:none"/><path d="M7.293,8.706,6,7.413V13a1,1,0,0,1-2,0V7.413L2.707,8.706A1,1,0,0,1,1.293,7.292l3-3a1,1,0,0,1,1.416,0l3,3A1,1,0,0,1,7.293,8.706ZM31,9a1,1,0,0,0-1-1H13a1,1,0,0,0,0,2H30A1,1,0,0,0,31,9ZM8.707,22.706a1,1,0,0,0,0-1.414l-3-3a1,1,0,0,0-1.416,0l-3,3a1,1,0,1,0,1.414,1.414L4,21.413V27a1,1,0,0,0,2,0V21.413l1.293,1.293A1,1,0,0,0,8.707,22.706ZM12,23a1,1,0,0,0,1,1H30a1,1,0,0,0,0-2H13A1,1,0,0,0,12,23Z" style="fill:#364f6b"/></g></svg>