<svg xmlns="http://www.w3.org/2000/svg" viewBox="0 0 32 32"><title>verification fail</title><g id="verification_fail" data-name="verification fail"><rect width="32" height="32" style="fill:none"/><path d="M29,1H3A2,2,0,0,0,1,3V30a1,1,0,0,0,1.5.868L9,27.15l6.5,3.717a1,1,0,0,0,.992,0L23,27.15l6.5,3.717A1,1,0,0,0,31,30V3A2,2,0,0,0,29,1ZM22.707,19.292a1,1,0,1,1-1.414,1.414L16,15.414l-5.293,5.292a1,1,0,1,1-1.414-1.414L14.586,14,9.293,8.707a1,1,0,1,1,1.414-1.414L16,12.586l5.293-5.293a1,1,0,1,1,1.414,1.414L17.414,14Z" style="fill:#364f6b"/></g></svg>