<svg xmlns="http://www.w3.org/2000/svg" viewBox="0 0 32 32"><title>write</title><g id="write"><rect width="32" height="32" style="fill:none"/><path d="M30.707,12.707l-12,12A1,1,0,0,1,18,25H14a1,1,0,0,1-1-1V20a1,1,0,0,1,.293-.707l12-12a1,1,0,0,1,1.414,0l4,4A1,1,0,0,1,30.707,12.707ZM10,19a1,1,0,0,0-1-1H2a1,1,0,0,0,0,2H9A1,1,0,0,0,10,19Zm5-5a1,1,0,0,0-1-1H2a1,1,0,0,0,0,2H14A1,1,0,0,0,15,14ZM10,9A1,1,0,0,0,9,8H2a1,1,0,0,0,0,2H9A1,1,0,0,0,10,9Zm1,15V23H2a1,1,0,0,0,0,2h9.184A2.966,2.966,0,0,1,11,24Z" style="fill:#364f6b"/></g></svg>